<?xml version="1.0" encoding="UTF-8" standalone="no"?><!DOCTYPE svg PUBLIC "-//W3C//DTD SVG 1.1//EN" "http://www.w3.org/Graphics/SVG/1.1/DTD/svg11.dtd"><svg width="100%" height="100%" viewBox="0 0 348 66" version="1.1" xmlns="http://www.w3.org/2000/svg" xmlns:xlink="http://www.w3.org/1999/xlink" xml:space="preserve" xmlns:serif="http://www.serif.com/" style="fill-rule:evenodd;clip-rule:evenodd;stroke-linejoin:round;stroke-miterlimit:1.41421;"><path d="M93.662,49.672l-17.712,0l0,-32.408l17.712,0l0,2.084l-15.451,0l0,12.258l14.586,0l0,2.084l-14.586,0l0,13.898l15.451,0l0,2.084Z" style="fill:#fff;fill-rule:nonzero;"/><path d="M128.242,33.424c0,5.142 -1.286,9.21 -3.857,12.202c-2.572,2.993 -6.118,4.489 -10.64,4.489c-4.508,0 -8.047,-1.496 -10.618,-4.489c-2.572,-2.992 -3.857,-7.075 -3.857,-12.247c0,-5.157 1.296,-9.217 3.89,-12.18c2.593,-2.963 6.136,-4.445 10.629,-4.445c4.522,0 8.061,1.489 10.618,4.467c2.556,2.978 3.835,7.045 3.835,12.203Zm-26.512,0c0,4.64 1.035,8.227 3.104,10.761c2.068,2.535 5.039,3.802 8.911,3.802c3.901,0 6.882,-1.256 8.944,-3.768c2.061,-2.512 3.092,-6.111 3.092,-10.795c0,-4.67 -1.031,-8.25 -3.092,-10.74c-2.062,-2.49 -5.028,-3.735 -8.9,-3.735c-3.857,0 -6.831,1.256 -8.922,3.768c-2.091,2.512 -3.137,6.081 -3.137,10.707Z" style="fill:#fff;fill-rule:nonzero;"/><path d="M141.054,37.281l-8.401,-11.704l2.527,0l7.182,10.152l7.115,-10.152l2.416,0l-8.268,11.704l8.867,12.391l-2.549,0l-7.581,-10.751l-7.626,10.751l-2.416,0l8.734,-12.391Z" style="fill:#fff;fill-rule:nonzero;"/><path d="M172.132,18.838c-4.064,0 -7.264,1.3 -9.599,3.901c-2.334,2.601 -3.502,6.163 -3.502,10.685c0,4.625 1.101,8.216 3.303,10.773c2.202,2.556 5.349,3.834 9.443,3.834c2.719,0 5.217,-0.347 7.492,-1.041l0,1.995c-2.142,0.753 -4.817,1.13 -8.024,1.13c-4.552,0 -8.135,-1.47 -10.751,-4.411c-2.616,-2.941 -3.923,-7.049 -3.923,-12.325c0,-3.295 0.624,-6.199 1.873,-8.711c1.248,-2.513 3.044,-4.452 5.386,-5.819c2.342,-1.367 5.065,-2.05 8.169,-2.05c3.162,0 5.992,0.591 8.489,1.773l-0.908,2.039c-2.365,-1.182 -4.847,-1.773 -7.448,-1.773Z" style="fill:#fff;fill-rule:nonzero;"/><rect x="185.941" y="15.18" width="2.195" height="34.491" style="fill:#fff;fill-rule:nonzero;"/><path d="M216.132,37.591c0,3.931 -0.953,7.001 -2.859,9.21c-1.906,2.209 -4.537,3.314 -7.891,3.314c-2.114,0 -3.976,-0.51 -5.586,-1.529c-1.611,-1.02 -2.845,-2.483 -3.702,-4.389c-0.857,-1.907 -1.286,-4.109 -1.286,-6.606c0,-3.931 0.953,-6.994 2.86,-9.188c1.906,-2.195 4.522,-3.292 7.847,-3.292c3.31,0 5.907,1.112 7.791,3.336c1.884,2.224 2.826,5.272 2.826,9.144Zm-19.019,0c0,3.31 0.728,5.893 2.184,7.747c1.455,1.855 3.513,2.782 6.173,2.782c2.66,0 4.718,-0.927 6.174,-2.782c1.455,-1.854 2.183,-4.437 2.183,-7.747c0,-3.325 -0.735,-5.904 -2.205,-7.736c-1.471,-1.833 -3.536,-2.749 -6.196,-2.749c-2.66,0 -4.71,0.913 -6.151,2.738c-1.441,1.825 -2.162,4.407 -2.162,7.747Z" style="fill:#fff;fill-rule:nonzero;"/><path d="M224.711,25.577l0,15.605c0,2.423 0.51,4.186 1.529,5.287c1.02,1.101 2.601,1.651 4.744,1.651c2.867,0 4.977,-0.724 6.329,-2.172c1.352,-1.448 2.028,-3.806 2.028,-7.071l0,-13.3l2.172,0l0,24.095l-1.862,0l-0.399,-3.325l-0.133,0c-1.566,2.512 -4.352,3.768 -8.357,3.768c-5.482,0 -8.223,-2.933 -8.223,-8.8l0,-15.738l2.172,0Z" style="fill:#fff;fill-rule:nonzero;"/><path d="M258.404,25.111c1.744,0 3.251,0.318 4.522,0.953c1.271,0.636 2.409,1.722 3.414,3.259l0.133,0c-0.089,-1.862 -0.133,-3.687 -0.133,-5.475l0,-8.668l2.172,0l0,34.492l-1.44,0l-0.555,-3.68l-0.177,0c-1.832,2.749 -4.463,4.123 -7.891,4.123c-3.325,0 -5.867,-1.034 -7.626,-3.103c-1.758,-2.069 -2.638,-5.084 -2.638,-9.044c0,-4.168 0.872,-7.352 2.616,-9.554c1.744,-2.202 4.278,-3.303 7.603,-3.303Zm0,1.995c-2.63,0 -4.607,0.924 -5.929,2.771c-1.323,1.847 -1.984,4.529 -1.984,8.046c0,6.828 2.652,10.241 7.958,10.241c2.719,0 4.714,-0.79 5.985,-2.371c1.271,-1.582 1.906,-4.19 1.906,-7.825l0,-0.377c0,-3.724 -0.624,-6.403 -1.873,-8.036c-1.249,-1.632 -3.27,-2.449 -6.063,-2.449Z" style="fill:#fff;fill-rule:nonzero;"/><rect x="276.603" y="15.18" width="2.195" height="34.491" style="fill:#fff;fill-rule:nonzero;"/><path d="M296.598,50.115c-3.503,0 -6.233,-1.079 -8.191,-3.236c-1.958,-2.158 -2.937,-5.18 -2.937,-9.066c0,-3.843 0.946,-6.92 2.837,-9.233c1.892,-2.313 4.441,-3.469 7.648,-3.469c2.837,0 5.076,0.99 6.716,2.97c1.641,1.981 2.461,4.67 2.461,8.069l0,1.773l-17.357,0c0.03,3.311 0.802,5.838 2.317,7.581c1.514,1.744 3.683,2.616 6.506,2.616c1.374,0 2.582,-0.096 3.624,-0.288c1.042,-0.192 2.361,-0.606 3.957,-1.241l0,1.995c-1.36,0.591 -2.616,0.993 -3.769,1.208c-1.152,0.214 -2.423,0.321 -3.812,0.321Zm-0.643,-23.053c-2.32,0 -4.182,0.764 -5.586,2.294c-1.404,1.529 -2.224,3.735 -2.461,6.617l14.896,0c0,-2.793 -0.606,-4.977 -1.817,-6.551c-1.212,-1.573 -2.89,-2.36 -5.032,-2.36Z" style="fill:#fff;fill-rule:nonzero;"/><path d="M326.722,43.399c0,2.157 -0.82,3.816 -2.46,4.976c-1.641,1.16 -3.968,1.74 -6.983,1.74c-3.222,0 -5.778,-0.495 -7.67,-1.485l0,-2.372c2.424,1.212 4.98,1.818 7.67,1.818c2.379,0 4.186,-0.396 5.42,-1.186c1.234,-0.791 1.851,-1.844 1.851,-3.159c0,-1.212 -0.492,-2.231 -1.474,-3.059c-0.983,-0.827 -2.598,-1.64 -4.844,-2.438c-2.409,-0.872 -4.101,-1.622 -5.076,-2.25c-0.975,-0.628 -1.71,-1.338 -2.206,-2.128c-0.495,-0.791 -0.742,-1.755 -0.742,-2.893c0,-1.803 0.757,-3.229 2.272,-4.278c1.515,-1.049 3.632,-1.574 6.351,-1.574c2.601,0 5.068,0.488 7.403,1.463l-0.82,1.995c-2.364,-0.975 -4.559,-1.463 -6.583,-1.463c-1.966,0 -3.525,0.325 -4.677,0.975c-1.153,0.651 -1.729,1.552 -1.729,2.705c0,1.256 0.447,2.261 1.341,3.014c0.894,0.754 2.641,1.596 5.242,2.527c2.172,0.784 3.754,1.489 4.744,2.117c0.99,0.628 1.732,1.341 2.227,2.139c0.496,0.798 0.743,1.737 0.743,2.816Z" style="fill:#fff;fill-rule:nonzero;"/><path d="M347.869,43.399c0,2.157 -0.82,3.816 -2.46,4.976c-1.641,1.16 -3.968,1.74 -6.983,1.74c-3.222,0 -5.778,-0.495 -7.67,-1.485l0,-2.372c2.424,1.212 4.981,1.818 7.67,1.818c2.379,0 4.186,-0.396 5.42,-1.186c1.234,-0.791 1.851,-1.844 1.851,-3.159c0,-1.212 -0.492,-2.231 -1.474,-3.059c-0.983,-0.827 -2.598,-1.64 -4.844,-2.438c-2.409,-0.872 -4.101,-1.622 -5.076,-2.25c-0.975,-0.628 -1.71,-1.338 -2.206,-2.128c-0.495,-0.791 -0.742,-1.755 -0.742,-2.893c0,-1.803 0.757,-3.229 2.272,-4.278c1.515,-1.049 3.632,-1.574 6.351,-1.574c2.601,0 5.069,0.488 7.403,1.463l-0.82,1.995c-2.364,-0.975 -4.559,-1.463 -6.583,-1.463c-1.966,0 -3.525,0.325 -4.677,0.975c-1.153,0.651 -1.729,1.552 -1.729,2.705c0,1.256 0.447,2.261 1.341,3.014c0.894,0.754 2.641,1.596 5.242,2.527c2.172,0.784 3.754,1.489 4.744,2.117c0.99,0.628 1.732,1.341 2.227,2.139c0.496,0.798 0.743,1.737 0.743,2.816Z" style="fill:#fff;fill-rule:nonzero;"/><g><path d="M13.591,20.78l0,27.182l-13.591,-13.591l13.591,-13.591Z" style="fill:#fff;"/><path d="M28.089,0l0,50.105l-3.037,3.036l-10.36,-10.36l0,-29.384l13.397,-13.397Z" style="fill:#fff;"/><path d="M58.18,26.296l-14.493,14.492l0,-28.985l14.493,14.493Z" style="fill:#fff;"/><path d="M42.587,20.712l0,31.186l-13.398,13.397l0,-50.104l3.939,-3.938l9.459,9.459Z" style="fill:#fff;"/></g></svg>